<svg width="285" height="285" viewBox="0 0 285 285" fill="none" xmlns="http://www.w3.org/2000/svg">
<rect width="285" height="285" fill="#FFEFF3"/>
<path d="M154.437 155.555L146.838 147.956L143.486 144.605L133.383 134.501L131.626 132.745L129.77 130.889L128.014 132.645L130.891 135.535V151.943C130.891 153.313 132.013 154.434 133.383 154.434H149.79L152.668 157.312L154.437 155.555ZM133.383 151.943V138.027L141.904 146.548L140.858 147.856L138.366 144.468L134.629 149.451H144.807L147.299 151.943H133.383ZM136.909 134.501L134.417 132.01H150.824C152.194 132.01 153.316 133.131 153.316 134.501V150.909L150.824 148.417V134.501H136.909Z" fill="#EE5070"/>
</svg>
